<svg width="1440" height="1024" viewBox="0 0 1440 1024" fill="none" xmlns="http://www.w3.org/2000/svg">
    <!-- Background rectangles removed for transparency -->
    <path d="M730.5 239L978 744H483L730.5 239Z" fill="#D9D9D9" fill-opacity="0.65"/>
    <path d="M404.042 921H389.639L431.298 807.545H445.48L487.139 921H472.736L438.832 825.494H437.946L404.042 921ZM409.361 876.682H467.417V888.869H409.361V876.682ZM610.731 835.909C610.067 830.295 607.371 825.938 602.643 822.835C597.916 819.733 592.118 818.182 585.248 818.182C580.226 818.182 575.831 818.994 572.064 820.619C568.334 822.244 565.416 824.479 563.311 827.322C561.243 830.166 560.209 833.398 560.209 837.017C560.209 840.045 560.929 842.649 562.369 844.828C563.846 846.97 565.73 848.761 568.02 850.202C570.309 851.605 572.71 852.768 575.221 853.692C577.733 854.578 580.041 855.298 582.146 855.852L593.669 858.955C596.623 859.73 599.91 860.801 603.53 862.168C607.186 863.534 610.676 865.399 614 867.763C617.361 870.089 620.131 873.081 622.309 876.737C624.488 880.393 625.578 884.881 625.578 890.199C625.578 896.33 623.971 901.869 620.758 906.818C617.582 911.767 612.929 915.7 606.798 918.618C600.704 921.536 593.3 922.994 584.584 922.994C576.459 922.994 569.423 921.683 563.477 919.061C557.568 916.439 552.915 912.783 549.517 908.092C546.156 903.402 544.254 897.955 543.811 891.75H557.993C558.362 896.034 559.802 899.58 562.314 902.386C564.862 905.156 568.075 907.224 571.953 908.591C575.868 909.92 580.078 910.585 584.584 910.585C589.828 910.585 594.537 909.736 598.71 908.037C602.883 906.301 606.189 903.901 608.626 900.835C611.064 897.733 612.282 894.114 612.282 889.977C612.282 886.21 611.23 883.145 609.125 880.781C607.02 878.418 604.25 876.497 600.815 875.02C597.381 873.543 593.669 872.25 589.68 871.142L575.72 867.153C566.856 864.605 559.839 860.967 554.669 856.24C549.498 851.513 546.913 845.327 546.913 837.682C546.913 831.33 548.631 825.79 552.065 821.062C555.537 816.298 560.19 812.605 566.025 809.983C571.898 807.324 578.453 805.994 585.692 805.994C593.004 805.994 599.504 807.305 605.192 809.928C610.879 812.513 615.385 816.058 618.709 820.564C622.069 825.07 623.842 830.185 624.027 835.909H610.731ZM685.837 819.733V807.545H770.928V819.733H735.252V921H721.513V819.733H685.837ZM836.006 921V807.545H874.341C883.205 807.545 890.481 809.06 896.168 812.088C901.856 815.08 906.066 819.197 908.799 824.442C911.532 829.686 912.898 835.651 912.898 842.335C912.898 849.02 911.532 854.947 908.799 860.118C906.066 865.288 901.874 869.351 896.224 872.305C890.573 875.223 883.353 876.682 874.563 876.682H843.54V864.273H874.12C880.177 864.273 885.052 863.386 888.745 861.614C892.475 859.841 895.171 857.33 896.833 854.08C898.532 850.793 899.381 846.878 899.381 842.335C899.381 837.793 898.532 833.822 896.833 830.425C895.134 827.027 892.42 824.405 888.689 822.558C884.959 820.675 880.029 819.733 873.898 819.733H849.745V921H836.006ZM889.41 870.034L917.33 921H901.376L873.898 870.034H889.41ZM984.32 921H969.916L1011.58 807.545H1025.76L1067.42 921H1053.01L1019.11 825.494H1018.22L984.32 921ZM989.638 876.682H1047.69V888.869H989.638V876.682Z" fill="white"/>
    <path d="M729.315 266.846L954.685 730.154" stroke="white" stroke-width="4"/>
    <line x1="725.395" y1="274.627" x2="502.395" y2="732.627" stroke="white" stroke-width="12"/>
    <line x1="699.118" y1="344.028" x2="882.805" y2="729.139" stroke="white" stroke-width="4"/>
    <line x1="540.999" y1="657.5" x2="920.006" y2="657.5" stroke="white" stroke-width="4"/>
    <path d="M883 729H953.527" stroke="white" stroke-width="4"/>
    <rect x="620.758" y="256.775" width="0.4055" height="3.27395" transform="rotate(-26.2587 620.758 256.775)" fill="#D9D9D9" stroke="#E6E6E6" stroke-width="0.4055"/>
    <path d="M727 258L735.66 276.75H718.34L727 258Z" fill="white"/>
</svg>